<?xml version="1.0" encoding="utf-8"?>
<!-- Generator: Adobe Illustrator 24.3.0, SVG Export Plug-In . SVG Version: 6.00 Build 0)  -->
<svg version="1.1" xmlns="http://www.w3.org/2000/svg" xmlns:xlink="http://www.w3.org/1999/xlink" x="0px" y="0px"
	 viewBox="0 0 1092 1090.8" style="enable-background:new 0 0 1092 1090.8;" xml:space="preserve">
<style type="text/css">
	.st0{fill:#D5B0B4;stroke:#000000;stroke-width:3;stroke-miterlimit:10;}
	.st1{fill:#00A3B0;stroke:#000000;stroke-width:3;stroke-miterlimit:10;}
	.st2{display:none;}
	.st3{fill:#CDE5C7;stroke:#000000;stroke-width:3;stroke-miterlimit:10;}
	.st4{fill:#E2D1E7;stroke:#000000;stroke-width:3;stroke-miterlimit:10;}
	.st5{fill:#E5DCCC;stroke:#000000;stroke-width:3;stroke-miterlimit:10;}
</style>
<g id="Layer_2">
	<g>
		<polygon class="st0" points="786.6,749 549.3,605.2 549.3,336 786.6,473.4 		"/>
		<polygon class="st0" points="786.6,749 1025.1,605.2 1025.1,336 786.6,475.4 		"/>
		<polygon class="st0" points="786.6,473.4 549.3,336 786.6,196.9 1025.1,336 		"/>
		<g id="sapWPp.tif">
			
				<image style="overflow:visible;" width="507" height="509" id="Layer_0_10_" xlink:href="5B46D7B2157D2A1D.png"  transform="matrix(0.3601 -0.2163 0 0.3601 814.5674 505.7145)">
			</image>
		</g>
		<g id="AIuYcA.tif">
			
				<image style="overflow:visible;" width="507" height="509" id="Layer_0_11_" xlink:href="5B46D7B2157D2A27.png"  transform="matrix(0.3601 0.2163 0 0.3601 574.8188 397.4686)">
			</image>
		</g>
		<g id="AIuYcA.tif_1_">
			
				<image style="overflow:visible;" width="507" height="509" id="Layer_0_12_" xlink:href="5B46D7B2157D2A29.png"  transform="matrix(0.3675 -0.2034 0.3117 0.1803 609.4294 341.7959)">
			</image>
		</g>
	</g>
	<g>
		<polygon class="st1" points="329.8,758 92.5,614.3 92.5,345.1 329.8,482.5 		"/>
		<polygon class="st1" points="329.8,758 568.2,614.3 568.2,345.1 329.8,484.5 		"/>
		<polygon class="st1" points="329.8,482.5 92.5,345.1 329.8,206 568.2,345.1 		"/>
		<g id="SuaZnw.tif">
			
				<image style="overflow:visible;" width="390" height="506" id="Layer_0_13_" xlink:href="5B46D7B2157D2A2A.png"  transform="matrix(0.4046 0.2431 0 0.4046 114.6857 401.8024)">
			</image>
		</g>
		<g id="SuaZnw.tif_1_">
			
				<image style="overflow:visible;" width="390" height="506" id="Layer_0_14_" xlink:href="5B46D7B2157D2A2B.png"  transform="matrix(0.4129 -0.2288 0.3504 0.2024 161.1768 337.6606)">
			</image>
		</g>
		<g id="aFB7fG.tif">
			
				<image style="overflow:visible;" width="390" height="506" id="Layer_0_15_" xlink:href="5B46D7B2157D2A2C.png"  transform="matrix(0.4415 -0.2653 0 0.4415 362.8885 491.6029)">
			</image>
		</g>
	</g>
</g>
<g id="Layer_3">
</g>
<g id="Layer_1">
	<g id="oHLFhs_1_" class="st2">
		
			<image style="display:inline;overflow:visible;" width="1011" height="1024" id="oHLFhs_2_" xlink:href="5B46D7B2157D2A2D.jpg"  transform="matrix(1 0 0 1 44.4154 25.9154)">
		</image>
	</g>
	<polygon class="st3" points="802,1050.2 549.9,897.5 549.9,611.5 802,757.5 	"/>
	<polygon class="st3" points="802,1050.2 1055.3,897.5 1055.3,611.5 802,759.6 	"/>
	<polygon class="st3" points="802,757.5 549.9,611.5 802,463.7 1055.3,611.5 	"/>
	<polygon class="st4" points="296.2,1050.2 44,898 44,611.5 296.2,758 	"/>
	<polygon class="st4" points="296.2,1050.2 549.4,898 549.4,611.5 296.2,760.2 	"/>
	<polyline class="st4" points="296.2,463.7 549.4,611.5 296.2,758 44,611.5 296.2,463.7 	"/>
	<polygon class="st5" points="549,611.5 296.2,463.7 296.2,175.7 549,322.9 	"/>
	<polygon class="st5" points="549,611.5 802,463.7 802,175.7 549,325.1 	"/>
	<polyline class="st5" points="549,29.3 802,175.7 549,322.9 296.2,175.7 549,29.3 	"/>
	
		<image style="overflow:visible;" width="440" height="504" id="Layer_0_1_" xlink:href="5B46D7B2157D2A2F.png"  transform="matrix(0.4031 0.1467 0 0.4031 74.8773 696.9958)">
	</image>
	<g id="f6eNjj.tif">
		
			<image style="overflow:visible;" width="407" height="510" id="Layer_0_3_" xlink:href="5B46D7B2157D2A28.png"  transform="matrix(0.4248 0.2553 0 0.4248 336.1785 233.3606)">
		</image>
	</g>
	<g id="hcD5nI.tif">
		
			<image style="overflow:visible;" width="459" height="506" id="Layer_0_2_" xlink:href="313D2CBD1B1716A6.png"  transform="matrix(0.3668 -0.1982 0.3075 0.182 640.0532 610.9581)">
		</image>
	</g>
	<g id="f6eNjj.tif_1_">
		
			<image style="overflow:visible;" width="407" height="510" id="Layer_0_4_" xlink:href="313D2CBD1B1716BC.png"  transform="matrix(-0.4248 0.2553 0 0.4248 761.9762 233.3606)">
		</image>
	</g>
	<g id="f6eNjj.tif_2_">
		
			<image style="overflow:visible;" width="407" height="510" id="Layer_0_5_" xlink:href="313D2CBD1B1716BD.png"  transform="matrix(0.4183 -0.2659 0.38 0.1899 366.9023 179.814)">
		</image>
	</g>
	<g id="hcD5nI.tif_1_">
		
			<image style="overflow:visible;" width="459" height="506" id="Layer_0_6_" xlink:href="313D2CBD1B1716BE.png"  transform="matrix(0.3569 0.2155 -7.888541e-04 0.3573 594.272 690.9988)">
		</image>
	</g>
	<g id="hcD5nI.tif_2_">
		
			<image style="overflow:visible;" width="459" height="506" id="Layer_0_7_" xlink:href="313D2CBD1B1716BB.png"  transform="matrix(-0.3671 0.2139 -7.891462e-04 0.3573 1013.1235 691.3654)">
		</image>
	</g>
	
		<image style="overflow:visible;" width="440" height="504" id="Layer_0_8_" xlink:href="313D2CBD1B1716A4.png"  transform="matrix(0.3481 -0.2507 0.3333 0.2268 141.7425 609.5129)">
	</image>
	<g id="_x38_js1ok.tif">
		
			<image style="overflow:visible;" width="440" height="504" id="Layer_0_9_" xlink:href="313D2CBD1B1716A9.png"  transform="matrix(0.4031 -0.2422 0 0.4031 330.3352 782.5631)">
		</image>
	</g>
</g>
</svg>
